<svg width="720" height="820" viewBox="0 0 720 820" fill="none" xmlns="http://www.w3.org/2000/svg">
  <rect width="720" height="820" rx="44" fill="url(#bg)"/>
  <circle cx="118" cy="134" r="116" fill="#6EE7B7" fill-opacity="0.18"/>
  <circle cx="592" cy="684" r="116" fill="#0A1D34" fill-opacity="0.22"/>
  <rect x="165" y="236" width="390" height="438" rx="195" fill="#122030"/>
  <ellipse cx="360" cy="330" rx="140" ry="154" fill="#EFD3BF"/>
  <path d="M220 305C220 211 286 148 360 148C434 148 500 211 500 305V352H220V305Z" fill="#0B1626"/>
  <path d="M214 626C246 530 307 480 360 480C413 480 474 530 506 626H214Z" fill="#EFF6FF"/>
  <path d="M243 626C274 555 314 516 360 516C406 516 446 555 477 626H243Z" fill="#10B981"/>
  <circle cx="310" cy="332" r="9.5" fill="#14243A"/>
  <circle cx="410" cy="332" r="9.5" fill="#14243A"/>
  <path d="M327 394C347 407 374 407 393 394" stroke="#B97A67" stroke-width="7" stroke-linecap="round"/>
  <defs>
    <linearGradient id="bg" x1="56" y1="40" x2="650" y2="786" gradientUnits="userSpaceOnUse">
      <stop stop-color="#071223"/>
      <stop offset="0.58" stop-color="#0B6C67"/>
      <stop offset="1" stop-color="#7DE4FF"/>
    </linearGradient>
  </defs>
</svg>
